<?xml version="1.0" encoding="utf-8"?>
<!-- Generator: Adobe Illustrator 27.9.0, SVG Export Plug-In . SVG Version: 6.00 Build 0)  -->
<svg version="1.1" id="Layer_1" xmlns="http://www.w3.org/2000/svg" xmlns:xlink="http://www.w3.org/1999/xlink" x="0px" y="0px"
	 width="14px" height="14.2px" viewBox="0 0 14 14.2" style="enable-background:new 0 0 14 14.2;" xml:space="preserve">
<style type="text/css">
	.st0{fill:#333333;}
</style>
<path class="st0" d="M7,3.5c-2,0-3.6,1.6-3.6,3.6S5,10.7,7,10.7s3.6-1.6,3.6-3.6S9,3.5,7,3.5z M7,9.4c-1.3,0-2.3-1-2.3-2.3
	s1-2.3,2.3-2.3s2.3,1,2.3,2.3S8.3,9.4,7,9.4z M11.6,3.4c0,0.5-0.4,0.8-0.8,0.8c-0.5,0-0.8-0.4-0.8-0.8s0.4-0.8,0.8-0.8
	S11.6,2.9,11.6,3.4z M14,4.2c-0.1-1.1-0.4-2.1-1.2-2.9S11,0.2,9.9,0.1c-1.2,0-4.6,0-5.8,0C3,0.2,2,0.5,1.2,1.3S0.1,3.1,0,4.2
	C0,5.4,0,8.8,0,10c0.1,1.1,0.4,2.1,1.2,2.9S3,14,4.1,14c1.2,0.1,4.6,0.1,5.8,0c1.1-0.1,2.1-0.3,2.9-1.1c0.8-0.8,1.1-1.8,1.1-2.9
	C14,8.8,14,5.4,14,4.2z M12.5,11.2c-0.2,0.6-0.7,1.1-1.3,1.3c-1,0.4-3.2,0.3-4.2,0.3s-3.2,0.1-4.1-0.3c-0.6-0.2-1.1-0.7-1.3-1.3
	c-0.4-0.9-0.3-3.1-0.3-4.1S1.2,3.9,1.5,3c0.2-0.6,0.7-1.1,1.3-1.3C3.8,1.3,6,1.4,7,1.4s3.2-0.1,4.1,0.3c0.6,0.2,1.1,0.7,1.3,1.3
	c0.4,0.9,0.3,3.1,0.3,4.1S12.8,10.3,12.5,11.2z"/>
</svg>
