<?xml version="1.0" encoding="utf-8"?>
<!-- Generator: Adobe Illustrator 27.9.0, SVG Export Plug-In . SVG Version: 6.00 Build 0)  -->
<svg version="1.1" id="Layer_1" xmlns="http://www.w3.org/2000/svg" xmlns:xlink="http://www.w3.org/1999/xlink" x="0px" y="0px"
	 width="400px" height="370px" viewBox="0 0 400 370" style="enable-background:new 0 0 400 370;" xml:space="preserve">
<style type="text/css">
	.st0{fill:#FFFFFF;}
	.st1{fill:#333333;}
</style>
<g>
	<path class="st0" d="M127,76.4c0,2.5,0,4.9,0,7.4c0,6.2-0.1,12.4,0.1,18.6c0.1,1.4,0.2,2.7,0.5,4.1c0.4,1.5,1.1,3,2.2,4.1
		s2.4,1.8,3.9,2.1c1.1,0.7,2.1,1.7,3.1,2.6l1.1,1.2v73.8h37.8l-0.7-84c-0.8-1.5-1.5-3-2.2-4.5c-1.4-2.8-2.7-5.7-4.4-8.4
		c-3.8-6-9.2-10.7-15.6-13.6c-1-0.5-2-0.9-3.1-1.3c-3.9-1.4-8-2.3-12.1-2.9c-1.4-0.2-2.8-0.4-4.1-0.7l-6.5-1.1V76.4L127,76.4z
		 M42.9,80.8l0.2,36.9c0.1,13.1,0.1,26.1,0.2,39.2c0.1,8.1,0.1,16.1,0.2,24.2l0.1,8.4l5.9,0.1h0.4h1.5h0.2l1.7,0.1
		c5.4,0.2,10.7,0.3,16.1,0.4h0.2c0.6,0,1.2,0,1.9-0.1c1.4-0.1,2.9-0.3,4.2-0.8c0.6-0.2,1.1-0.5,1.6-0.9c1.7,1,3.6,1.9,5.5,2.5
		c1.3,0.4,2.7,0.8,4,1c4.1,0.8,8.4,0.8,12.6,0.2c3.9-0.6,7.7-1.7,11.3-3.3c1.8-0.8,3.6-1.7,5.3-2.8c4.7-3.1,8.8-7.1,11.9-11.7
		c0.6-0.9,1.2-1.8,1.7-2.8c1.3-2.5,2.3-5.3,2.8-8.1c1.2-6.2,1.3-12.5,0.8-18.8c-0.2-2.1-0.4-4.1-0.8-6.2c-0.7-3.6-1.8-7.1-3.5-10.3
		c-0.6-1-1.2-2-1.8-3c-2.7-4.2-6-8-9.9-11.1c-0.7-0.5-1.3-1-2-1.5c-3.1-2-6.6-3.3-10.1-4.3c-5.6-1.5-11.6-1.8-17.3-0.8
		c-2.3,0.4-4.6,1.1-6.8,2v-31H42.9V80.8L42.9,80.8z M307.6,106.9c-2.5,0-5.1,0.3-7.6,0.8c-4.8,0.9-9.5,2.6-13.7,5.1
		c-5.3,3.1-9.8,7.5-12.9,12.9c-1,1.6-1.8,3.4-2.5,5.1c-1.4,3.6-2.4,7.4-2.9,11.2c-1.1-5-3.2-9.7-6.1-13.9c-2.7-3.9-5.9-7.4-9.7-10.2
		c-8.1-6.1-17.8-9.7-28-10.1c-1.8-0.1-3.6,0-5.4,0.1c-8.6,0.7-16.8,3.7-23.8,8.7c-3.9,2.8-7.2,6.1-10,9.9c-2.7,3.6-4.6,7.7-5.9,12.1
		c-0.5,1.8-0.8,3.6-1,5.5c-0.3,3.4-0.6,6.8-0.4,10.3c0,0.9,0.1,1.9,0.3,2.8c0.4,2.5,1.2,4.9,2.2,7.2c0.6,1.4,1.2,2.7,1.9,4
		c3.6,6.5,8.5,12.2,14.5,16.6c3.5,2.5,7.4,4.5,11.6,5.7c4.2,1.3,8.6,1.9,13,2.1c1.7,0,3.4,0,5.1-0.1c5.2-0.3,10.4-1.5,15.2-3.4
		c0.7-0.3,1.4-0.6,2.1-1c3.1-1.6,5.9-3.5,8.6-5.6c2.4-2,4.7-4.1,6.8-6.5c1.3-1.5,2.6-3.1,3.6-4.8c2.4-3.7,4.1-7.7,5.1-11.9
		c0.5,4.3,1.5,8.5,3.2,12.5c1.1,2.5,2.5,4.8,4.3,6.9c2.3,2.8,5.1,5.2,8.2,7.1c3.2,2,6.6,3.6,10.1,5c1.5,0.6,3.1,1,4.7,1.3v35
		l5.9-0.3h0.6h0.6h0.2h1.3c5.5-0.2,11-0.4,16.5-0.7c3.8-0.3,7.5-1.1,10.9-2.8c0.9-0.5,1.9-0.9,2.8-1.5c3.5-2,6.8-4.6,9.6-7.5
		c0.4-0.4,0.7-0.8,1-1.2c2.3-2.7,4.3-5.7,5.7-9c0.6-1.5,1.1-3,1.5-4.5c1-4,1.4-8.2,1.6-12.3c0.1-2.1,0.2-4.2,0.3-6.3
		c0.3-13.4,0.2-26.8,0.2-40.1c0-3.3,0-6.6,0-9.8v-22.8h-36.5v1C316.5,107.7,312.1,106.9,307.6,106.9L307.6,106.9z M225,142.7
		c0.4,0,0.9,0,1.3,0.2c0.1,0.1,0.3,0.2,0.4,0.3c1.5,1.3,2.9,2.7,4.1,4.2c0.2,0.3,0.2,0.6,0.2,1c0.1,0.8,0,1.7-0.1,2.5
		c-0.3,2.2-1.4,4.1-3.1,5.5c-0.8,0.7-1.8,1.2-2.9,1.4c-1.3,0.4-2.8,0.3-4.1-0.2c-1.7-0.6-3.1-1.7-4.1-3.2c-0.4-0.6-0.6-1.2-0.8-1.9
		c-0.5-1.8-0.3-3.7,0.5-5.4c0.3-0.6,0.7-1.2,1.1-1.7c0.7-1.1,1.8-2,3-2.4c0.4-0.1,0.8-0.2,1.2-0.3c0.9-0.1,1.9-0.2,2.8-0.2
		C224.7,142.7,224.8,142.7,225,142.7z M313.7,142.8c0.7,0,1.4,0.1,2,0.3c1.9,0.6,3.5,2.1,4.4,3.9c0.3,0.5,0.5,1.1,0.6,1.7
		c0.3,1.4,0.3,2.9-0.1,4.3c-0.2,0.5-0.5,1-0.8,1.5l-0.1,0.1c-0.9,1.1-2.1,2-3.4,2.6c-0.9,0.4-1.9,0.7-2.9,0.9
		c-0.7,0-1.3-0.2-1.9-0.4c-0.7-0.3-1.4-0.6-2-0.9c-1.1-0.8-2-1.8-2.5-3.1c-0.7-1.6-0.8-3.4-0.4-5.1c0.2-0.8,0.5-1.6,1-2.3
		c1.1-1.8,3-3,5-3.3C313,142.8,313.4,142.8,313.7,142.8z M88.8,144c0.8,0,1.5,0.1,2.2,0.4c1.6,0.7,2.9,2,3.6,3.6
		c0.3,0.9,0.4,1.8,0.4,2.7c-0.1,1.4-0.5,2.7-1.3,3.8c-0.9,0.9-2,1.6-3.2,2c-1.4,0.5-2.8,0.6-4.3,0.5c-1.1-0.2-2.1-0.8-2.8-1.7
		c-0.9-1.1-1.4-2.4-1.5-3.8c-0.2-1.6,0.1-3.1,0.9-4.5c0.5-0.8,1.2-1.6,2-2C85.9,144.3,87.4,144,88.8,144L88.8,144z"/>
	<path class="st1" d="M196.2,367c-1.9-1.8-8.4-15.9-20.7-44.8l-17.9-42.4h-53.3c-30.9,0-55.9-0.4-59.3-1.1
		c-8.9-1.7-20.8-8-27.2-14.4C11.3,257.8,5,246.4,3.2,238C2.3,234,2,203.3,2,140.1c0-79.2,0.2-93,1.7-98.7C9,21,25.9,5.4,46.3,2.2
		c9.9-1.7,297.7-1.7,307.5,0c19.8,3.1,36.2,17.3,42,36.1c2.1,7,2.2,10.2,2.2,101.4c0,59.4-0.4,95.9-1.2,99
		c-3,13.2-14.3,27.8-26.2,34.2c-12.3,6.5-15.3,6.9-73.9,6.9h-53.2l-17.9,42.4c-10,23.2-18.8,43-19.8,44
		C202.4,369.6,199.3,369.8,196.2,367z M333.8,216.2c3.3-1.9,7.6-5.4,9.6-8.1c6.5-8.6,7-11.8,7-54.6V115h-23.2v7l-2.4-2.2
		c-6.1-5.5-14.3-7.4-23.7-5.5c-17.7,3.6-27,16.3-27,36.6c0,17,4.6,25.6,17.3,31.7c5.6,2.8,8.5,3.5,13.5,3.5c8-0.1,14.6-1.9,18.5-5
		l3.1-2.4l-0.8,4.9c-1.5,9.6-6.6,14.4-15.5,14.4h-5.1v22.3l11.4-0.4C326.4,219.6,328.4,219.1,333.8,216.2L333.8,216.2z M108.9,182.3
		c6.3-2.9,12.4-9.1,15.3-15.2c3.1-7,3.2-23.4,0.2-32.1c-2.2-6.5-9-14.7-14.4-17.6c-11.3-5.9-25.7-4.9-33.5,2.3l-2.5,2.2V85.1H49.6
		l0.2,49l0.3,48.9l11.9,0.3c11.3,0.3,11.8,0.2,11.8-2c0-2.8,0.3-2.8,5.4,0.6C87.1,187.2,98.3,187.3,108.9,182.3L108.9,182.3z
		 M238.4,183.4c6.7-2.4,15.9-10.3,19.6-16.8c12.1-21-1.7-46.5-27.8-51.5c-16.4-3.2-34.1,4.8-41.8,18.9c-2.4,4.6-3.3,7.7-3.7,14.4
		c-0.4,7.4-0.1,9.2,2.5,15.2c3.2,7.2,10.5,15,17.1,18.5C214,186.9,227.3,187.5,238.4,183.4z M168.8,145.7l-0.3-37.8l-3.6-7.4
		c-5.1-10.3-13.2-15.8-26.4-18l-4.8-0.8V94c0,10.5,0.2,12.3,1.8,12.3c1,0,3.4,1.7,5.5,3.8l3.8,3.8v69.9h24.4L168.8,145.7z"/>
	<path class="st1" d="M307.6,163.2c-7.3-3.1-10.2-13.1-5.9-20.1c6-9.8,19.9-9,24.6,1.5c3.4,7.9,0,15.9-8.3,19
		C313.9,165.1,311.9,165,307.6,163.2L307.6,163.2z M80.8,161.9c-8.2-5.6-7.3-18.9,1.5-23.1c12.2-5.8,23.8,6.3,17.6,18.3
		C96.8,163.2,86.3,165.8,80.8,161.9L80.8,161.9z M215.8,162.6c-6.7-4-8.9-12.7-4.9-19.3c0.1-0.2,0.3-0.5,0.4-0.7
		c3.2-4.8,6.6-6.5,12.8-6.5c4.1,0,5.4,0.6,9.1,4.3c3.6,3.7,4.3,5,4.3,9.1C237.6,161.3,225.6,168.6,215.8,162.6L215.8,162.6z"/>
</g>
</svg>
