<?xml version="1.0" encoding="utf-8"?>
<!-- Generator: Adobe Illustrator 27.9.0, SVG Export Plug-In . SVG Version: 6.00 Build 0)  -->
<svg version="1.1" id="Layer_3" xmlns="http://www.w3.org/2000/svg" xmlns:xlink="http://www.w3.org/1999/xlink" x="0px" y="0px"
	 width="500px" height="500px" viewBox="0 0 500 500" style="enable-background:new 0 0 500 500;" xml:space="preserve">
<style type="text/css">
	.st0{fill:#333333;}
	.st1{fill:#FFFFFF;}
</style>
<g>
	<path class="st0" d="M351.4,498.3H148.6c-80.2,0-145.9-65.7-145.9-145.9V147.6C2.7,67.4,68.3,1.7,148.6,1.7h202.9
		c80.2,0,145.9,65.7,145.9,145.9v204.8C497.3,432.6,431.7,498.3,351.4,498.3z"/>
	<g>
		<path class="st1" d="M167.3,350.2c-11.9-8.6-23.8-15.8-34.1-24.9C108.4,303.4,94,276,95.4,242.1c1.2-30,14.9-54.2,36.6-74.2
			c24.7-22.7,54.3-35.3,87.1-40.4c39.8-6.2,78.3-1.3,114.6,17c26.9,13.5,48.9,32.6,61.4,60.5c17.1,38.1,10.9,73.7-14.7,105.8
			c-22.9,28.6-53.9,44.1-89.1,52c-21.1,4.7-42.4,5.6-63.8,3c-3.6-0.4-6.4,0.3-9.4,2.4c-16.6,11.6-33.4,23.1-50.1,34.4
			c-3,2.1-6.4,3.7-9.8,5.1c-4.3,1.7-6.3,0.3-5.8-4.3c0.4-4.3,1.4-8.6,2.7-12.7C159,376.9,163.3,363.1,167.3,350.2z M324.5,237.2
			c-0.6-0.3-0.7-0.3-1.3-0.5c0-2.8,0-5.6,0-8.4c0-2.9,0.2-5.8-0.1-8.7c-0.6-6.7-4-9.9-9.7-9.4c-5.2,0.4-8.1,4.4-8,10.6
			c0,13.2-0.1,26.4-0.2,39.6c0,6.3-0.3,12.6,0.3,18.8c0.7,6.9,4,9.7,9.4,9.2c5.2-0.5,8.2-4.3,8.3-10.5c0.1-5-0.2-10,0.1-15
			c0.1-1.9,1.4-3.7,2.5-6.3c7.5,9.8,14.1,18.5,20.7,27.2c2.3,3,5,5.1,9,4.3c7.1-1.3,9.9-8.4,5.6-14.4c-7-9.6-14.3-19-21.5-28.5
			c0.9-1,1.5-1.7,2.1-2.4c5.9-5.9,11.9-11.7,17.8-17.7c3.3-3.4,3-7.8-0.4-11.2c-3.1-3.2-7.4-3.5-10.9-0.7c-1.9,1.5-3.5,3.3-5.2,5
			C336.8,224.5,330.7,230.9,324.5,237.2z M182.4,280.2c0,4.2,1.9,6.5,5.7,7.7c4.1,1.2,7.8,1.2,10.2-2.8c1.7-2.9,2.5-6.3,4.1-9.2
			c0.8-1.3,2.7-2.7,4.1-2.8c7.1-0.3,14.1-0.3,21.2,0c1.4,0.1,3.3,1.5,4,2.9c1.6,2.8,2.3,6,3.8,8.8c2.3,4,6,4.6,11,2.9
			c4.4-1.5,5.6-4.6,4.7-8.7c-0.7-3.4-1.6-6.9-2.9-10.2c-6.4-16.8-13-33.5-19.5-50.3c-2.1-5.5-6.3-8.4-11.7-8.4c-5.6,0-9.7,3-12,8.8
			c-6.2,16-12.5,32-18.6,48C185,271.3,183.8,275.8,182.4,280.2z M173.1,227.7c6-0.3,11.1-0.2,16.2-0.8c4.5-0.5,6.5-3.6,6.6-8.1
			c0.1-4.6-2.3-7.3-6.5-8.2c-2.5-0.5-5.1-0.8-7.7-0.8c-13.4,0.1-26.7,0.2-40.1,0.4c-4.7,0.1-8.1,3.1-8.6,7.5c-0.6,4.9,1.7,8.3,7,9.2
			c3.1,0.6,6.4,0.4,9.6,0.6c1.9,0.1,3.8,0,5.9,0c0.2,3.8,0.6,7,0.5,10.2c-0.2,11.6-0.6,23.2-0.7,34.8c0,3.2,0.3,6.4,0.9,9.6
			c0.9,4.7,4.2,6.6,8.8,6.5c5.4-0.2,8.3-3.2,8.5-10.2c0.3-7.4-0.2-14.8-0.3-22.2C173,246.7,173.1,237.4,173.1,227.7z M274.5,270.9
			c0-2.3,0-4.1,0-6c0-14.9,0.1-29.9-0.1-44.8c-0.1-6.6-3.4-9.9-9.3-9.8c-5.8,0.1-8.7,3.6-8.8,10.2c-0.1,15.9-0.4,31.8-0.5,47.7
			c0,4,0.2,8.1,0.7,12.1c0.5,3.9,3.8,6.8,7.7,6.9c8.5,0.1,17,0.3,25.5,0.2c2.1,0,4.2-0.4,6.2-0.9c3.7-0.9,5.8-3.3,6-7.2
			c0.1-4.1-1.9-6.9-5.9-7.7c-3.4-0.7-7-0.6-10.5-0.7C282.1,270.8,278.6,270.9,274.5,270.9z"/>
		<path class="st1" d="M225.9,257.1h-17.6c2.9-8.2,5.6-15.9,8.8-24.9C220.3,241.2,223,248.8,225.9,257.1z"/>
	</g>
</g>
</svg>
