<?xml version="1.0" encoding="utf-8"?>
<!-- Generator: Adobe Illustrator 27.9.0, SVG Export Plug-In . SVG Version: 6.00 Build 0)  -->
<svg version="1.1" id="Layer_2_00000012439441308305676590000004647193747678624674_"
	 xmlns="http://www.w3.org/2000/svg" xmlns:xlink="http://www.w3.org/1999/xlink" x="0px" y="0px" width="1000px" height="120px"
	 viewBox="0 0 1000 120" style="enable-background:new 0 0 1000 120;" xml:space="preserve">
<g>
	<path d="M484.6,118.4c-2.9,0-5.9,0-8.9,0c-11.7-0.1-23.4-0.3-35.1-0.4c-2.3,0-4.4,0.3-4.4-3.2c0.1-2.9,0.3-5.1,3.9-4.8
		c2.5,0.1,5.1-0.2,7.6,0.1c5.2,0.5,6.6-2.3,6.6-6.9c0.1-11.4,0.6-22.8,0.6-34.2c0-13.3-0.5-26.6-0.4-40c0.1-12.2-4.8-16.9-16.8-18.8
		c-5-0.8-6.2-2.6-4.9-7.9c4.5,0,9.2,0,13.9,0c5.5,0,11.1,0.4,16.6-0.1c6.2-0.6,10.7,1.6,15,6c24.3,24.5,48.9,48.8,73.4,73.3
		c1.4,1.4,2.5,3.3,3.8,4.9c0.5-0.3,0.9-0.5,1.4-0.8c0.1-1.3,0.3-2.6,0.3-3.9c-1.2-21.2-2.5-42.4-3.5-63.6c-0.2-3.8-1.6-5.9-5.4-6.5
		c-2.3-0.4-4.6-1.3-6.9-1.5c-4.3-0.4-5.5-2.5-3.7-7.5c13.6,0,27.8,0,42.3,0c1.6,3.9-0.5,6.2-5.1,7.1c-1.2,0.2-2.5,0.6-3.6,1
		c-6.6,2.2-7.4,3.3-7.3,10.2c0.7,28,1.5,56.1,2.3,84.1c0.1,4.9,0,9.7,0,14.9c-5.7,0.5-10.1,1-14.8-3.8c-28.4-28.9-57.4-57.4-86.2-86
		c-0.4,0.3-0.9,0.5-1.3,0.8c-0.1,1-0.4,1.9-0.4,2.9c0.6,22.7,1.4,45.3,2,68c0.1,4.9,1.6,7.9,7.1,7.6c1.7-0.1,3.4,0.5,5.2,0.6
		C485.4,110.3,485.4,110.2,484.6,118.4z"/>
	<path d="M763.6,2.5c13.7,0,27.7,0,42,0c1.2,3.5,0.3,6.3-4.6,7c-1.4,0.2-2.8,0.6-4.1,1.1c-6.4,2.2-7.4,3.5-7.2,10.3
		c0.8,28.1,1.7,56.1,2.5,84.2c0.1,4.7,0,9.4,0,14.4c-5.8,1.6-10.4,1-15.2-3.8c-27.5-27.5-55.3-54.5-83.1-81.7
		c-1.1-1.1-2.4-2.1-4.1-3.5c-0.2,1.5-0.4,2.4-0.4,3.4c0.3,19.2,0.7,38.3,1.1,57.5c0.1,4.1,0.5,8.2,1,12.3c0.3,3.1,1.7,5.4,5.4,5.4
		c2,0,4.1,0.6,6.1,0.7c7.5,0.6,7.5,0.6,7.5,8c-16,0-32,0-47.9,0c-1.5-7.7-1.2-8.1,6.1-7.8c11.2,0.4,11.2,0.4,11.4-11
		c0.3-19.7,0.6-39.3,0.7-59c0-5.4-0.3-10.8-0.8-16.1c-0.5-6.3-4.9-11-11.6-12.8c-1.7-0.4-3.4-0.8-5.1-1.1c-5.5-0.9-5.5-0.9-4.6-7.7
		c12.4,0,24.9-0.1,37.4,0.1c1.4,0,3.1,1.4,4.3,2.5c26.1,25.7,52.1,51.5,78.1,77.2c1.2,1.2,2.4,2.3,4.6,4.3
		c-0.5-10.9-0.8-20.6-1.3-30.4c-0.6-11.9-1.3-23.7-2.1-35.6c-0.5-7.9-1-8.4-8.7-9.7c-1.2-0.2-2.5-0.7-3.7-0.8
		C763,9.7,762.1,7.3,763.6,2.5z"/>
	<path d="M233.6,9c0.1-2.3,0.3-4.3,0.4-7c4.9,0.4,9.4,1.2,13.9,1.2c27-0.2,53.9-0.6,80.9-0.8c4.3,0,8.6,0.4,12.7,1.1
		c1.3,0.2,3.2,2,3.2,3.1c0.3,8.4,0.1,16.7,0.1,25.3c-4,0.9-7.4,1-8.4-4c-0.1-0.6-0.5-1.2-0.7-1.7c-7.2-14.3-7.7-14.6-23.8-15.1
		c-6-0.2-12.1-0.3-18.1-0.3c-4.7-0.1-9.5,0-14.7,0c0,14.9,0,29.2,0,44.7c10.9-0.8,21.3-1.2,31.6-2.5c2.1-0.3,4.6-3.2,5.6-5.5
		c1.6-3.7,2.2-7.9,3.2-12c2-0.1,3.8-0.2,6.4-0.4c0,15.4,0,30.5,0,45.8c-4.2,1.5-6,0.2-7.1-4.6C315.5,60,315.1,62.6,302,62
		c-7.4-0.3-14.8-0.1-22.5-0.1c-0.2,2-0.5,3.2-0.5,4.4c0,11.6,0.1,23.2-0.1,34.7c-0.1,4.1,1.7,6.7,5.6,6.7c12,0.2,24.1,0.5,36.1-0.2
		c11.6-0.7,18.3-8.7,22.4-18.7c2-4.7,4.8-5.6,9.8-4.4c-2,10.9-4,21.7-6,32.5c-37.6,0-75.1,0-112.9,0c0-1.6,0-3.4,0-5.5
		c4.7-0.8,9.5-1.7,14.3-2.3c4.4-0.5,5.8-2.8,5.8-7c-0.1-9.5,0.1-19-0.1-28.6c-0.3-19.2-0.8-38.4-1-57.5c0-3.5-1.5-4.8-4.7-5.2
		C243.6,10.4,238.9,9.7,233.6,9z"/>
	<path d="M56.8,55.7c2.5,0,5.2,0.1,7.8,0c8.8-0.2,16-5.9,17.3-14.6c0.7-4.9,0.8-10.2-0.1-15.1C79.5,13.3,64.7,5.8,52.6,10.9
		c-1.3,0.5-2.7,2.7-2.7,4.2c0.1,26.2,0.3,52.3,0.6,78.5c0,3.3,0.2,6.7,0.1,10c-0.1,3,0.7,4.5,4.2,4.6c4.6,0.1,9.1,1,13.9,1.6
		c0,2.4,0,4.6,0,7c-19.2,0-38.3,0-57.8,0c-1.2-3.2-0.5-5.5,4-6.9c11.4-3.3,11.5-3.5,11.3-15.1c-0.5-25.4-1.3-50.7-2-76.1
		c-0.2-5.6-2.4-7.9-8-8.8c-1.2-0.2-2.5-0.7-3.7-0.7c-5.4,0-6.3-3-4.9-7.9c1.1,0,2.3,0,3.5,0c18.4,0,36.7-0.2,55.1,0
		C72.6,1.4,79.1,2,85.5,3c16.2,2.6,25.9,19.9,24.3,34.8C108,54.6,94.4,67.4,77.5,67.7c-5.1,0.1-10.3-1.2-15.4-2.3
		C57.1,64.4,55,61.2,56.8,55.7z"/>
	<path d="M230.6,84.8c-0.9,10.1-1.7,20-3,29.9c-0.1,1.1-2.9,2.7-4.3,2.7c-12-0.2-24.1-1.1-36.1-1.1c-21.1-0.1-42.2,0.4-63.2,0.6
		c-1.7,0-3.4,0-5.1,0c-1.3-6.8-1.1-7.1,5.4-8.1c0.9-0.2,1.9-0.4,2.8-0.6c10.6-1.5,10.4-1.5,10.5-12c0.2-23.3,0.6-46.6,0.8-69.9
		c0.1-12.5-0.2-12.9-12.4-16.5c-4.1-1.2-7.3-2.6-5.2-8.3c3.7,0,7.7,0,11.7,0c14.6,0,29.1-0.1,43.7-0.1c2.1,0,4.7-1.1,5.1,2.4
		c0.3,3-0.1,5.3-3.9,5.6c-2,0.2-4,1.1-6,1.5c-9,2-8.1,0.5-8.3,9.9c-0.4,27.3-0.6,54.6-1.1,81.8c-0.1,3.9,0.8,5.9,5.3,5.6
		c11.3-0.8,22.8-0.6,34-2.2c9.4-1.3,15.6-7.8,19.1-16.7C222.7,83.5,222.8,83.5,230.6,84.8z"/>
	<path d="M367.7,8.6c-0.2-2.2-0.4-4.5-0.6-6.8c19,0,37.6,0,56.3,0c1.3,6,1.3,6-4.8,7.8c-11.2,3.3-10.9,3.3-10.9,14.9
		c0.1,19.7-0.2,39.3-0.3,59c0,7-0.1,13.9,0.3,20.9c0.1,1.3,1.8,3.1,3.1,3.6c2.7,0.8,5.6,1.1,8.4,1.1c4.2,0,4.4,2.8,4.4,5.7
		c0,3.7-2.8,2.9-4.8,2.8c-7.1-0.4-14.2-1.5-21.3-1.5c-10.1-0.1-20.2,0.6-30.3,0.9c-1.4-4.3-0.3-7.1,4.8-7.6c1.6-0.1,3.1-0.8,4.6-1.1
		c4.8-0.8,6.3-4.1,6.3-8.5c0.1-26.9,0.2-53.9,0.3-80.8c0-8-0.2-8-8.3-9.2C372.6,9.3,370.3,9,367.7,8.6z"/>
	<path d="M593.1,117c-1.3-4.6-0.1-6.6,4.5-7.6c11.2-2.5,11.1-2.7,11.2-14.1c0.2-22,0.6-44,0.8-66.1c0-5.1-0.2-10.2-0.9-15.1
		c-0.2-1.5-2.5-3.4-4.2-3.9c-3.3-0.9-6.9-1-10.9-1.5c-0.1-2.2-0.2-4.6-0.4-6.9c19,0,37.4,0,56.2,0c1.2,4,0.3,6.5-4.7,7.8
		c-11.5,3-11.3,3.2-11.2,15.2c0.1,25.7,0.1,51.4-0.1,77.1c0,4.3,0.9,6.6,5.5,6.5c1.9,0,3.8,0.7,5.6,0.6c4.1-0.2,5.2,2,5.1,5.6
		c-0.2,4.2-3.5,3-5.7,2.9c-9-0.4-18-1.4-27-1.5C609,115.8,601.2,116.6,593.1,117z"/>
	<path d="M835.4,119.4c-7.5,0.1-12.9-5.2-13.1-12.6c-0.2-7.2,5.6-13.1,12.6-13.1c7.4,0,13.4,5.4,13.3,11.9
		C848.2,113.9,843.2,119.3,835.4,119.4z"/>
	<path d="M863.5,117c0-2.6,0-4.8,0-7.2c3.1-0.6,6-1.1,8.9-1.7c7.4-1.7,9.2-3.8,9.5-11.3c0.2-4.6,0.3-9.2,0.3-13.8
		c0-21.3,0-42.5,0-63.8c0-5.9-0.6-6.6-6.6-6.3c-3.9,0.2-7.8,0.7-11.7,1.1c-1.5-7.5-1.2-8.1,5.7-9.5c24.3-4.8,48.9-6,73.2-2.8
		c29.8,3.9,51.8,29.5,50.3,62.9c-1.2,28-24.1,53.2-56.2,52.6c-23.8-0.4-47.5-0.1-71.2-0.1C865.1,117.1,864.5,117,863.5,117z
		 M906.5,53c0,0.2,0,0.3,0,0.8c0,12.8,0.4,24.9,0.6,37.7c0.1,7,3.6,12.1,10.2,14.6c16.7,6.3,38.9,0.2,45.4-19.9
		c3.9-11.9,4.5-24,3.3-36.2c-3-29.8-26.5-46.6-55.3-39.9c-3.3,0.7-4.3,2.1-4.3,5.4C906.6,27.9,906.5,40.4,906.5,53z"/>
</g>
</svg>
