<?xml version="1.0" encoding="utf-8"?>
<!-- Generator: Adobe Illustrator 27.9.0, SVG Export Plug-In . SVG Version: 6.00 Build 0)  -->
<svg version="1.1" id="Layer_2" xmlns="http://www.w3.org/2000/svg" xmlns:xlink="http://www.w3.org/1999/xlink" x="0px" y="0px"
	 width="1000px" height="230px" viewBox="0 0 1000 230" style="enable-background:new 0 0 1000 230;" xml:space="preserve">
<g>
	<path d="M863.2,120.4c0-2.6,0-4.8,0-7.2c3.1-0.6,6-1.1,8.9-1.7c7.4-1.7,9.2-3.8,9.5-11.3c0.2-4.6,0.3-9.2,0.3-13.8
		c0-21.3,0-42.5,0-63.8c0-5.9-0.6-6.6-6.6-6.3c-3.9,0.2-7.8,0.7-11.7,1.1c-1.5-7.5-1.2-8.1,5.7-9.5c24.3-4.8,48.9-6,73.3-2.8
		C972.5,9,994.5,34.6,993,68c-1.2,28-24.1,53.2-56.2,52.6c-23.8-0.4-47.6-0.1-71.3-0.1C864.8,120.5,864.2,120.4,863.2,120.4z
		 M906.2,56.3c0.2,0,0.4,0,0.5,0c0,12.8-0.1,25.7,0.1,38.5c0.1,7,3.6,12.1,10.2,14.6c16.7,6.3,38.9,0.2,45.4-19.9
		c3.9-11.9,4.5-24,3.3-36.2c-3-29.8-26.5-46.6-55.3-40c-3.3,0.7-4.3,2.1-4.3,5.4C906.3,31.2,906.2,43.7,906.2,56.3z"/>
	<path d="M484.6,121.9c-2.9,0-5.9,0-8.9,0c-11.7-0.1-23.4-0.3-35.1-0.4c-2.3,0-4.4,0.3-4.4-3.2c0.1-2.9,0.3-5.1,3.9-4.8
		c2.5,0.1,5.1-0.2,7.6,0.1c5.2,0.5,6.6-2.3,6.6-6.9c0.1-11.4,0.6-22.8,0.6-34.2c0-13.3-0.5-26.6-0.4-40c0.1-12.2-4.8-16.9-16.8-18.8
		c-5-0.8-6.2-2.6-4.9-7.9c4.5,0,9.2,0,13.9,0c5.5,0,11.1,0.4,16.6-0.1c6.2-0.6,10.7,1.6,15,6c24.3,24.5,48.9,48.8,73.4,73.3
		c1.4,1.4,2.5,3.3,3.8,4.9c0.5-0.3,0.9-0.5,1.4-0.8c0.1-1.3,0.3-2.6,0.3-3.9c-1.2-21.2-2.5-42.4-3.5-63.6c-0.2-3.8-1.6-5.9-5.4-6.5
		c-2.3-0.4-4.6-1.3-6.9-1.5c-4.3-0.4-5.5-2.5-3.7-7.5c13.6,0,27.8,0,42.3,0c1.6,3.9-0.5,6.2-5.1,7.1c-1.2,0.2-2.5,0.6-3.6,1
		c-6.6,2.2-7.4,3.3-7.3,10.2c0.7,28,1.5,56.1,2.3,84.1c0.1,4.9,0,9.7,0,14.9c-5.7,0.5-10.1,1-14.8-3.8c-28.4-28.9-57.4-57.4-86.2-86
		c-0.4,0.3-0.9,0.5-1.3,0.8c-0.1,1-0.4,1.9-0.4,2.9c0.6,22.7,1.4,45.3,2,68c0.1,4.9,1.6,7.9,7.1,7.6c1.7-0.1,3.4,0.5,5.2,0.6
		C485.4,113.8,485.4,113.8,484.6,121.9z"/>
	<path d="M763.6,6c13.7,0,27.7,0,42,0c1.2,3.5,0.3,6.3-4.6,7c-1.4,0.2-2.8,0.6-4.1,1.1c-6.4,2.2-7.4,3.5-7.2,10.3
		c0.8,28.1,1.7,56.1,2.5,84.2c0.1,4.7,0,9.4,0,14.4c-5.8,1.6-10.4,1-15.2-3.8c-27.5-27.5-55.3-54.5-83.1-81.7
		c-1.1-1.1-2.4-2.1-4.1-3.5c-0.2,1.5-0.4,2.4-0.4,3.4c0.3,19.2,0.7,38.3,1.1,57.5c0.1,4.1,0.5,8.2,1,12.3c0.3,3.1,1.7,5.4,5.4,5.4
		c2,0,4.1,0.6,6.1,0.7c7.5,0.6,7.5,0.6,7.5,8c-16,0-32,0-47.9,0c-1.5-7.7-1.2-8.1,6.1-7.8c11.2,0.4,11.2,0.4,11.4-11
		c0.3-19.7,0.6-39.3,0.7-59c0-5.4-0.3-10.8-0.8-16.1c-0.5-6.3-4.9-11-11.6-12.8c-1.7-0.4-3.4-0.8-5.1-1.1c-5.5-0.9-5.5-0.9-4.6-7.7
		c12.4,0,24.9-0.1,37.4,0.1c1.4,0,3.1,1.4,4.3,2.5c26.1,25.7,52.1,51.5,78.1,77.2c1.2,1.2,2.4,2.3,4.6,4.3
		c-0.5-10.9-0.8-20.6-1.3-30.4c-0.6-11.9-1.3-23.7-2.1-35.6c-0.5-7.9-1-8.4-8.7-9.7c-1.2-0.2-2.5-0.7-3.7-0.8
		C763,13.2,762.1,10.8,763.6,6z"/>
	<path d="M233.6,12.5c0.1-2.3,0.3-4.3,0.4-7c4.9,0.4,9.4,1.2,13.9,1.2c27-0.2,53.9-0.6,80.9-0.8c4.3,0,8.6,0.4,12.7,1.1
		c1.3,0.2,3.2,2,3.2,3.1c0.3,8.4,0.1,16.7,0.1,25.3c-4,0.9-7.4,1-8.4-4c-0.1-0.6-0.5-1.2-0.7-1.7c-7.2-14.3-7.7-14.6-23.8-15.1
		c-6-0.2-12.1-0.3-18.1-0.3c-4.7-0.1-9.5,0-14.7,0c0,14.9,0,29.2,0,44.7c10.9-0.8,21.3-1.2,31.6-2.5c2.1-0.3,4.6-3.2,5.6-5.5
		c1.6-3.7,2.2-7.9,3.2-12c2-0.1,3.8-0.2,6.4-0.4c0,15.4,0,30.5,0,45.8c-4.2,1.5-6,0.2-7.1-4.6c-3.5-16.2-3.9-13.5-16.9-14.1
		c-7.4-0.3-14.8-0.1-22.5-0.1c-0.2,2-0.5,3.2-0.5,4.4c0,11.6,0.1,23.2-0.1,34.7c-0.1,4.1,1.7,6.7,5.6,6.7c12,0.2,24.1,0.5,36.1-0.2
		c11.6-0.7,18.3-8.7,22.4-18.7c2-4.7,4.8-5.6,9.8-4.4c-2,10.9-4,21.7-6,32.5c-37.6,0-75.1,0-112.9,0c0-1.6,0-3.4,0-5.5
		c4.7-0.8,9.5-1.7,14.3-2.3c4.4-0.5,5.8-2.8,5.8-7c-0.1-9.5,0.1-19-0.1-28.6c-0.3-19.2-0.8-38.4-1-57.5c0-3.5-1.5-4.8-4.7-5.2
		C243.6,13.9,238.9,13.2,233.6,12.5z"/>
	<path d="M56.8,59.2c2.5,0,5.2,0.1,7.8,0c8.8-0.2,16-5.9,17.3-14.6c0.7-4.9,0.8-10.2-0.1-15.1C79.5,16.8,64.7,9.3,52.6,14.4
		c-1.3,0.5-2.7,2.7-2.7,4.2c0.1,26.2,0.3,52.3,0.6,78.5c0,3.3,0.2,6.7,0.1,10c-0.1,3,0.7,4.5,4.2,4.6c4.6,0.1,9.1,1,13.9,1.6
		c0,2.4,0,4.6,0,7c-19.2,0-38.3,0-57.8,0c-1.2-3.2-0.5-5.5,4-6.9c11.4-3.3,11.5-3.5,11.3-15.1c-0.5-25.4-1.3-50.7-2-76.1
		c-0.2-5.6-2.4-7.9-8-8.8c-1.2-0.2-2.5-0.7-3.7-0.7c-5.4,0-6.3-3-4.9-7.9c1.1,0,2.3,0,3.5,0c18.4,0,36.7-0.2,55.1,0
		c6.4,0.1,12.9,0.7,19.3,1.7c16.2,2.6,25.9,19.9,24.3,34.8C108,58.1,94.4,70.9,77.5,71.2c-5.1,0.1-10.3-1.2-15.4-2.3
		C57.1,67.9,55,64.7,56.8,59.2z"/>
	<path d="M230.6,88.3c-0.9,10.1-1.7,20-3,29.9c-0.1,1.1-2.9,2.7-4.3,2.7c-12-0.2-24.1-1.1-36.1-1.1c-21.1-0.1-42.2,0.4-63.2,0.6
		c-1.7,0-3.4,0-5.1,0c-1.3-6.8-1.1-7.1,5.4-8.1c0.9-0.2,1.9-0.4,2.8-0.6c10.6-1.5,10.4-1.5,10.5-12c0.2-23.3,0.6-46.6,0.8-69.9
		c0.1-12.5-0.2-12.9-12.4-16.5c-4.1-1.2-7.3-2.6-5.2-8.3c3.7,0,7.7,0,11.7,0c14.6,0,29.1-0.1,43.7-0.1c2.1,0,4.7-1.1,5.1,2.4
		c0.3,3-0.1,5.3-3.9,5.6c-2,0.2-4,1.1-6,1.5c-9,2-8.1,0.5-8.3,9.9c-0.4,27.3-0.6,54.6-1.1,81.8c-0.1,3.9,0.8,5.9,5.3,5.6
		c11.3-0.8,22.8-0.6,34-2.2c9.4-1.3,15.6-7.8,19.1-16.7C222.7,87,222.8,87,230.6,88.3z"/>
	<path d="M367.7,12.1c-0.2-2.2-0.4-4.5-0.6-6.8c19,0,37.6,0,56.3,0c1.3,6,1.3,6-4.8,7.8c-11.2,3.3-10.9,3.3-10.9,14.9
		c0.1,19.7-0.2,39.3-0.3,59c0,7-0.1,13.9,0.3,20.9c0.1,1.3,1.8,3.1,3.1,3.6c2.7,0.8,5.6,1.1,8.4,1.1c4.2,0,4.4,2.8,4.4,5.7
		c0,3.7-2.8,2.9-4.8,2.8c-7.1-0.4-14.2-1.5-21.3-1.5c-10.1-0.1-20.2,0.6-30.3,0.9c-1.4-4.3-0.3-7.1,4.8-7.6c1.6-0.1,3.1-0.8,4.6-1.1
		c4.8-0.8,6.3-4.1,6.3-8.5c0.1-26.9,0.2-53.9,0.3-80.8c0-8-0.2-8-8.3-9.2C372.6,12.8,370.3,12.5,367.7,12.1z"/>
	<path d="M593.1,120.5c-1.3-4.6-0.1-6.6,4.5-7.6c11.2-2.5,11.1-2.7,11.2-14.1c0.2-22,0.6-44,0.8-66.1c0-5.1-0.2-10.2-0.9-15.1
		c-0.2-1.5-2.5-3.4-4.2-3.9c-3.3-0.9-6.9-1-10.9-1.5c-0.1-2.2-0.2-4.6-0.4-6.9c19,0,37.4,0,56.2,0c1.2,4,0.3,6.5-4.7,7.8
		c-11.5,3-11.3,3.2-11.2,15.2c0.1,25.7,0.1,51.4-0.1,77.1c0,4.3,0.9,6.6,5.5,6.5c1.9,0,3.8,0.7,5.6,0.6c4.1-0.2,5.2,2,5.1,5.6
		c-0.2,4.2-3.5,3-5.7,2.9c-9-0.4-18-1.4-27-1.5C609,119.3,601.2,120.1,593.1,120.5z"/>
	<path d="M835.4,122.9c-7.5,0.1-12.9-5.2-13.1-12.6c-0.2-7.2,5.6-13.1,12.6-13.1c7.4,0,13.4,5.4,13.3,11.9
		C848.2,117.5,843.2,122.8,835.4,122.9z"/>
	<path d="M493.3,226.7c-1.8-1.3-4.1-2.3-5.2-4c-5.3-7.7-10.2-15.5-16.2-23.2c0,6.7,0,13.4,0,20.1c0,1.3,0.2,2.6-0.1,3.8
		c-0.2,0.9-0.9,1.6-1.4,2.4c-0.6-0.8-1.8-1.7-1.8-2.5c-0.2-5.4-0.1-10.8-0.1-16.2c0-4.4,0-8.8,0-13.2c3.6-1.6,5.3,0,7,2.8
		c4.7,7.7,9.6,15.2,15.2,24c0-9.9,0-18.4,0-26.9c0.5-0.3,1.1-0.5,1.6-0.8c0.7,1.1,2.1,2.1,2.1,3.2c0.2,9.7,0.1,19.3,0.1,29
		C494.1,225.7,493.7,226.2,493.3,226.7z"/>
	<path d="M452,210.5c3.3,5.1,6.3,9.8,9.4,14.6c-0.3,0.4-0.7,0.9-1,1.3c-1.5-1-3.3-1.8-4.3-3.1c-1.7-2.2-3-4.8-4.4-7.3
		c-2-3.4-4.8-4.8-8.8-3.9c-0.5,4.6-1,9.2-1.6,13.7c0,0.1-1.4,0-2.3,0c0-10.9,0-21.4,0-32.3c3.5,0,6.8,0,10.1,0c4.5,0,7.7,2,8.8,6.3
		c1.2,4.4-0.4,7.7-4.4,9.9C452.9,209.9,452.4,210.2,452,210.5z M442.5,208.3c4.1,0.3,8.4,1.6,10.7-2.9c0.9-1.8,1-5,0-6.5
		c-2.6-3.8-6.7-2.9-10.6-2.4C442.5,200.7,442.5,204.4,442.5,208.3z"/>
	<path d="M546.5,193c0.6,1.2,1.8,2.4,1.8,3.6c0.3,6.5,0.1,13,0.4,19.5c0.2,4.2,2.7,6.6,6.9,7.1c5.3,0.7,9.1-2,9.3-7.4
		c0.3-6.3,0.1-12.7,0.3-19c0-1.3,1.1-2.5,1.7-3.8c0.6,0.2,1.1,0.4,1.7,0.5c0,7.9,0.5,15.8-0.2,23.6c-0.5,6.5-5.8,10-12.6,9.6
		c-6.6-0.3-10.6-4.1-10.9-10.8c-0.3-7.3-0.1-14.6-0.1-21.9C545.4,193.7,546,193.4,546.5,193z"/>
	<path d="M592.2,210.4c3.2,5.1,6.3,9.8,9.3,14.6c-0.3,0.4-0.5,0.8-0.8,1.2c-1.4-0.8-3.3-1.3-4.2-2.5c-1.8-2.3-3.1-5.1-4.7-7.7
		c-2.5-3.9-3.4-4.4-9.4-4c0,3.5,0.1,7.1-0.1,10.6c-0.1,1.1-1.1,2.1-1.7,3.2c-0.5-1-1.5-1.9-1.5-2.9c-0.1-9.6-0.1-19.3-0.1-29.5
		c4.2,0,8.1-0.3,12,0.1c3.8,0.4,6.5,2.8,7.1,6.6C599,205.2,596.7,208.6,592.2,210.4z M582.7,196.5c0,4.3,0,8,0,11.9
		c4.1,0.2,8.5,1.4,10.8-2.9c0.9-1.6,1-4.6,0.1-6.1C591.1,195.2,586.8,196.3,582.7,196.5z"/>
	<path d="M408.6,194c0,7.3-0.3,14.6,0.1,21.8c0.3,5.2,3.7,7.8,8.4,7.7c4.6-0.1,7.7-3.1,7.8-8.4c0.2-6.2,0-12.4,0.2-18.6
		c0-1.2,1.2-2.4,1.9-3.6c0.5,0.2,1,0.4,1.5,0.6c0,7.6,0.5,15.2-0.1,22.7c-0.6,7.2-5.6,10.8-12.8,10.5c-6.7-0.3-10.4-4.1-10.7-11.4
		c-0.2-6.3-0.2-12.7-0.1-19c0-1.1,1.1-2.2,1.6-3.2C407.2,193.4,407.9,193.7,408.6,194z"/>
	<path d="M625,196.3c-4.6,0-8.5,0-12.7,0c0,3.8,0,7.2,0,11.4c3,0,6.1-0.1,9.2,0.1c0.8,0,1.6,0.9,2.4,1.4c-0.8,0.5-1.5,1.4-2.4,1.5
		c-3,0.2-5.9,0.1-9.2,0.1c0,4.1,0,7.8,0,12.2c3.8,0,7.6-0.1,11.3,0.1c0.7,0,1.4,0.8,2.2,1.2c-0.7,0.6-1.4,1.6-2.2,1.6
		c-4.7,0.1-9.5,0.1-14.6,0.1c0-10.7,0-21.2,0-31.8C615.5,192.3,623.7,193.1,625,196.3z"/>
	<path d="M397.3,195.7c-4.2,0.3-8.4,0.6-12.9,0.9c0,3.5,0,7,0,11.3c3,0,6.1-0.1,9.1,0.1c0.9,0.1,1.7,1.2,2.5,1.9
		c-0.8,0.5-1.6,1.4-2.5,1.5c-3,0.2-6,0.1-9.4,0.1c0,4.8,0,9.3,0,13.8c-0.4,0.3-0.9,0.6-1.3,1c-0.9-1-2.4-1.9-2.4-2.9
		c-0.2-9.8-0.1-19.5-0.1-29.6c5.8,0,11.2,0,16.6,0C397.1,194.4,397.2,195,397.3,195.7z"/>
	<path d="M528.8,225.2c-3.4,1.4-3.9-0.1-3.8-2.6c0.1-8.5,0-17.1,0-26.3c-2.6,0-4.9,0.1-7.2-0.1c-0.8-0.1-1.5-1-2.3-1.5
		c0.7-0.4,1.4-1.2,2.1-1.2c6.8-0.1,13.6-0.1,21.4-0.1c-2.8,4.8-7,1.6-10.2,3.6C528.8,206.2,528.8,215.8,528.8,225.2z"/>
	<path d="M506.3,193c0.8,1,2.3,2,2.3,3.1c0.2,9,0.2,18,0,27c0,1-1.5,2.1-2.3,3.1c-0.4-0.3-0.8-0.5-1.2-0.8c0-10.5,0-21.1,0-31.6
		C505.5,193.6,505.9,193.3,506.3,193z"/>
</g>
</svg>
