<?xml version="1.0" encoding="utf-8"?>
<!-- Generator: Adobe Illustrator 27.9.0, SVG Export Plug-In . SVG Version: 6.00 Build 0)  -->
<svg version="1.1" id="Layer_1" xmlns="http://www.w3.org/2000/svg" xmlns:xlink="http://www.w3.org/1999/xlink" x="0px" y="0px"
	 width="1920px" height="220px" viewBox="0 0 1920 220" style="enable-background:new 0 0 1920 220;" xml:space="preserve">
<style type="text/css">
	.st0{fill:#333333;}
</style>
<g>
	<path class="st0" d="M80.8,213.6c-15.4,0-30.2-2.4-44.3-7.1c-14.1-4.7-25.2-10.9-33.3-18.4l10.7-22.6c7.7,6.8,17.6,12.3,29.5,16.8
		c12,4.4,24.4,6.7,37.3,6.7c11.8,0,21.3-1.3,28.6-4.1c7.3-2.7,12.7-6.4,16.2-11.1c3.5-4.7,5.2-10.1,5.2-16.1
		c0-6.9-2.3-12.5-6.8-16.8c-4.5-4.2-10.4-7.7-17.7-10.3c-7.2-2.6-15.2-4.9-23.9-6.8c-8.7-1.9-17.4-4.2-26.2-6.8
		c-8.8-2.6-16.8-5.9-24-10c-7.2-4.1-13.1-9.5-17.5-16.4c-4.4-6.8-6.7-15.7-6.7-26.5c0-10.4,2.7-20,8.2-28.8
		c5.5-8.8,14-15.8,25.5-21.1c11.5-5.3,26.1-8,43.8-8c11.8,0,23.4,1.5,35,4.6c11.6,3.1,21.6,7.5,30.1,13.3l-9.6,23.2
		c-8.7-5.8-17.8-10-27.5-12.6c-9.6-2.6-19-3.9-28.1-3.9c-11.4,0-20.7,1.4-28.1,4.3c-7.3,2.9-12.7,6.8-16.1,11.6
		c-3.4,4.8-5.1,10.2-5.1,16.2c0,7.1,2.3,12.8,6.8,17.1c4.5,4.2,10.4,7.6,17.7,10.1c7.2,2.5,15.2,4.8,23.9,6.8
		c8.7,2,17.4,4.3,26.2,6.8c8.8,2.5,16.8,5.8,24,9.8c7.2,4.1,13.1,9.5,17.5,16.2c4.4,6.8,6.7,15.4,6.7,26c0,10.2-2.8,19.7-8.4,28.5
		c-5.6,8.8-14.2,15.8-25.9,21.1C113.2,210.9,98.5,213.6,80.8,213.6z"/>
	<path class="st0" d="M230.4,211.3h-28.9V8.7h28.9V211.3z M349.3,121H227.5V95.8h121.8V121z M346.7,8.7h28.9v202.6h-28.9V8.7z"/>
	<path class="st0" d="M527.9,213.6c-15.4,0-29.8-2.6-43-7.8c-13.2-5.2-24.6-12.5-34.3-21.8c-9.6-9.4-17.2-20.3-22.6-32.8
		c-5.4-12.5-8.1-26.2-8.1-41.1c0-14.9,2.7-28.5,8.1-41.1c5.4-12.5,12.9-23.5,22.6-32.8c9.6-9.4,21-16.6,34.1-21.8
		c13.1-5.2,27.5-7.8,43.1-7.8c15.4,0,29.7,2.6,42.8,7.7c13.1,5.1,24.5,12.3,34.1,21.7c9.6,9.4,17.1,20.4,22.4,33
		c5.3,12.6,8,26.4,8,41.2c0,15-2.7,28.8-8,41.4c-5.3,12.5-12.8,23.5-22.4,32.8c-9.6,9.4-21,16.6-34.1,21.7
		C557.6,211,543.3,213.6,527.9,213.6z M527.6,187.8c11.4,0,21.8-1.9,31.4-5.8c9.5-3.9,17.8-9.3,24.9-16.3c7-7,12.5-15.3,16.5-24.7
		c4-9.5,5.9-19.8,5.9-31c0-11.2-2-21.5-5.9-30.8c-4-9.4-9.5-17.6-16.5-24.7c-7-7.1-15.3-12.6-24.9-16.5c-9.5-3.9-20-5.8-31.4-5.8
		c-11.2,0-21.6,1.9-31.1,5.8c-9.5,3.9-17.9,9.4-25,16.5c-7.1,7.1-12.7,15.4-16.6,24.7c-4,9.4-5.9,19.6-5.9,30.8
		c0,11.2,2,21.5,5.9,31c4,9.5,9.5,17.7,16.6,24.7c7.1,7,15.5,12.5,25,16.3C506,185.9,516.4,187.8,527.6,187.8z"/>
	<path class="st0" d="M726.1,211.3L658.4,8.7h29.8l62.2,186.9h-15L799.9,8.7h26.6l63.1,186.9h-14.5L938.2,8.7h27.5L898,211.3h-30.4
		l-59-173.3h7.8l-59.3,173.3H726.1z"/>
	<path class="st0" d="M1005.4,211.3V8.7h79c17.7,0,32.9,2.8,45.4,8.4c12.5,5.6,22.2,13.7,28.9,24.3c6.8,10.6,10.1,23.3,10.1,37.9
		c0,14.7-3.4,27.3-10.1,37.8c-6.8,10.5-16.4,18.6-28.9,24.2c-12.5,5.6-27.7,8.4-45.4,8.4h-63.1l13-13.3v75H1005.4z M1034.3,139.2
		l-13-14.2h62.2c18.5,0,32.6-4,42.1-12c9.5-8,14.3-19.2,14.3-33.7c0-14.5-4.8-25.7-14.3-33.6c-9.5-7.9-23.6-11.9-42.1-11.9h-62.2
		l13-14.5V139.2z M1140.8,211.3l-51.5-73.5h31l52.1,73.5H1140.8z"/>
	<path class="st0" d="M1307.2,213.6c-15.4,0-29.8-2.6-43-7.8c-13.2-5.2-24.6-12.5-34.3-21.8c-9.6-9.4-17.2-20.3-22.6-32.8
		c-5.4-12.5-8.1-26.2-8.1-41.1c0-14.9,2.7-28.5,8.1-41.1c5.4-12.5,12.9-23.5,22.6-32.8c9.6-9.4,21-16.6,34.1-21.8
		c13.1-5.2,27.5-7.8,43.1-7.8c15.4,0,29.7,2.6,42.8,7.7c13.1,5.1,24.5,12.3,34.1,21.7c9.6,9.4,17.1,20.4,22.4,33
		c5.3,12.6,8,26.4,8,41.2c0,15-2.7,28.8-8,41.4c-5.3,12.5-12.8,23.5-22.4,32.8c-9.6,9.4-21,16.6-34.1,21.7
		C1336.9,211,1322.6,213.6,1307.2,213.6z M1306.9,187.8c11.4,0,21.8-1.9,31.4-5.8c9.5-3.9,17.8-9.3,24.9-16.3
		c7-7,12.5-15.3,16.5-24.7c4-9.5,5.9-19.8,5.9-31c0-11.2-2-21.5-5.9-30.8c-4-9.4-9.5-17.6-16.5-24.7c-7-7.1-15.3-12.6-24.9-16.5
		c-9.5-3.9-20-5.8-31.4-5.8c-11.2,0-21.6,1.9-31.1,5.8c-9.5,3.9-17.9,9.4-25,16.5c-7.1,7.1-12.7,15.4-16.6,24.7
		c-4,9.4-5.9,19.6-5.9,30.8c0,11.2,2,21.5,5.9,31c4,9.5,9.5,17.7,16.6,24.7c7.1,7,15.5,12.5,25,16.3
		C1285.3,185.9,1295.7,187.8,1306.9,187.8z"/>
	<path class="st0" d="M1550.3,213.6c-15.4,0-29.8-2.6-43-7.8c-13.2-5.2-24.6-12.5-34.3-21.8c-9.6-9.4-17.2-20.3-22.6-32.8
		c-5.4-12.5-8.1-26.2-8.1-41.1c0-14.9,2.7-28.5,8.1-41.1c5.4-12.5,12.9-23.5,22.6-32.8c9.6-9.4,21-16.6,34.1-21.8
		c13.1-5.2,27.5-7.8,43.1-7.8c15.4,0,29.7,2.6,42.8,7.7c13.1,5.1,24.5,12.3,34.1,21.7c9.6,9.4,17.1,20.4,22.4,33
		c5.3,12.6,8,26.4,8,41.2c0,15-2.7,28.8-8,41.4c-5.3,12.5-12.8,23.5-22.4,32.8c-9.6,9.4-21,16.6-34.1,21.7
		C1580,211,1565.7,213.6,1550.3,213.6z M1550,187.8c11.4,0,21.8-1.9,31.4-5.8c9.5-3.9,17.8-9.3,24.9-16.3c7-7,12.5-15.3,16.5-24.7
		c4-9.5,5.9-19.8,5.9-31c0-11.2-2-21.5-5.9-30.8c-4-9.4-9.5-17.6-16.5-24.7c-7-7.1-15.3-12.6-24.9-16.5c-9.5-3.9-20-5.8-31.4-5.8
		c-11.2,0-21.6,1.9-31.1,5.8c-9.5,3.9-17.9,9.4-25,16.5c-7.1,7.1-12.7,15.4-16.6,24.7c-4,9.4-5.9,19.6-5.9,30.8
		c0,11.2,2,21.5,5.9,31c4,9.5,9.5,17.7,16.6,24.7c7.1,7,15.5,12.5,25,16.3C1528.4,185.9,1538.8,187.8,1550,187.8z"/>
	<path class="st0" d="M1701.9,211.3V8.7h23.7l90.9,153.1h-12.7l89.7-153.1h23.7l0.3,202.6h-27.8l-0.3-158.9h6.7l-79.9,134.3h-13.3
		l-80.4-134.3h7.2v158.9H1701.9z"/>
</g>
</svg>
