<?xml version="1.0" encoding="utf-8"?>
<!-- Generator: Adobe Illustrator 27.9.0, SVG Export Plug-In . SVG Version: 6.00 Build 0)  -->
<svg version="1.1" id="Layer_2_00000019645998513809317600000010234093985477402275_"
	 xmlns="http://www.w3.org/2000/svg" xmlns:xlink="http://www.w3.org/1999/xlink" x="0px" y="0px" width="500px" height="500px"
	 viewBox="0 0 500 500" style="enable-background:new 0 0 500 500;" xml:space="preserve">
<g>
	<g>
		<path d="M162.4,442.5c0-5.1,0-9.5,0-14.2c6.1-1.2,11.8-2.2,17.5-3.4c14.6-3.4,18.1-7.5,18.7-22.3c0.4-9.1,0.6-18.1,0.6-27.2
			c0-42,0-83.8,0-125.8c0-11.6-1.2-13-13-12.4c-7.7,0.4-15.4,1.4-23.1,2.2c-3-14.8-2.4-16,11.2-18.7c47.9-9.5,96.4-11.8,144.5-5.5
			c58.7,7.7,102.1,58.1,99.3,124c-2.4,55.2-47.5,104.9-110.8,103.7c-46.9-0.8-93.8-0.2-140.5-0.2
			C165.6,442.7,164.4,442.5,162.4,442.5z M247.2,316.1c0,0.3,0,0.6,0,1.5c0,25.2,0.8,49.2,1.2,74.4c0.2,13.8,7.1,23.8,20.1,28.8
			c32.9,12.4,76.7,0.4,89.5-39.2c7.7-23.5,8.9-47.3,6.5-71.4c-5.9-58.7-52.2-91.9-109-78.8c-6.5,1.4-8.5,4.1-8.5,10.6
			C247.4,266.7,247.2,291.3,247.2,316.1z"/>
		<path d="M107.6,447.4c-14.8,0.2-25.4-10.2-25.8-24.8c-0.4-14.2,11-25.8,24.8-25.8c14.6,0,26.4,10.6,26.2,23.5
			C132.9,436.6,123,447.2,107.6,447.4z"/>
	</g>
	<path d="M232,121.6l-111.3,34.8c-11.6,0-16-15.1-6.3-21.4l51.1-32.7l71.8-46c7.7-5,17.7-5,25.4,0l71.9,45.9l51.1,32.6
		c9.8,6.2,5.4,21.4-6.2,21.4l-111.3-34.6C256.4,117.9,243.8,117.9,232,121.6z"/>
</g>
</svg>
